<svg width="200" height="200" viewBox="0 0 21 20" xmlns="http://www.w3.org/2000/svg" aria-hidden="true">
  <path
    fill="currentColor"
    clip-rule="evenodd"
    d="M 12.7133 19.4382 C 12.4951 19.5031 12.267 19.5281 12.0399 19.5119 C 11.8195 19.5427 11.5949 19.5073 11.3946 19.4102 C 11.3332 19.3338 11.3009 19.2381 11.3034 19.1401 C 11.3035 19.0374 11.3153 18.9351 11.3385 18.835 C 11.3762 18.7211 11.3762 18.5982 11.3385 18.4843 C 11.2859 18.4071 11.0895 18.4387 10.9878 18.3826 C 10.8861 18.3265 10.8475 18.1757 10.8124 18.0143 C 10.8124 17.9617 10.7704 17.9162 10.7668 17.8741 C 10.759 17.5909 10.7945 17.3083 10.8721 17.0359 C 10.9352 16.7623 11.0123 16.5098 11.0579 16.2608 C 11.1264 15.8637 11.1476 15.4599 11.1211 15.0579 C 11.1002 14.8808 11.1002 14.7019 11.1211 14.5248 C 11.1491 14.3635 11.2158 14.2302 11.2508 14.0724 C 11.2508 14.0198 11.2508 13.9602 11.2508 13.9041 C 11.2508 13.8479 11.2859 13.8164 11.2894 13.7743 C 11.2838 13.6509 11.2709 13.5279 11.2508 13.406 C 11.2385 13.0189 11.2478 12.6313 11.2789 12.2452 C 11.2789 12.1365 11.3385 12.0172 11.2613 11.9681 C 10.9085 11.9788 10.5568 12.0151 10.2092 12.0769 C 9.21535 12.211 8.207 12.1957 7.21768 12.0313 C 7.13351 12.0137 7.04934 12.0137 6.96868 11.9927 C 6.36088 11.8604 5.78971 11.5958 5.2958 11.2176 C 5.22917 11.165 5.145 11.1054 5.06784 11.0423 C 4.99613 10.977 4.91866 10.9183 4.83638 10.8669 C 4.6666 10.8027 4.48096 10.7931 4.30549 10.8397 C 4.13002 10.8862 3.97351 10.9865 3.8579 11.1264 C 3.80179 11.2176 3.7597 11.3404 3.70359 11.4491 C 3.64748 11.5578 3.60189 11.6665 3.55279 11.7717 C 3.31431 12.3189 3.04777 12.8239 2.80578 13.3885 C 2.65207 13.7211 2.5197 14.0632 2.40948 14.4126 C 2.18853 15.1666 2.40948 16.1661 2.5673 16.8886 C 2.58833 16.9565 2.61292 17.0232 2.64095 17.0885 C 2.69969 17.2834 2.80432 17.4614 2.94606 17.6075 C 3.0162 17.6671 3.13544 17.7057 3.2126 17.7724 C 3.31535 17.8923 3.39931 18.0271 3.4616 18.1722 C 3.49317 18.2318 3.53876 18.2984 3.58084 18.3721 C 3.67203 18.5334 3.70359 18.6772 3.52473 18.7719 C 3.3573 18.8381 3.1787 18.8714 2.99867 18.8701 C 2.9145 18.8946 2.94255 19.0104 2.88995 19.0665 C 2.82145 19.1106 2.74707 19.1448 2.669 19.1682 C 2.3867 19.2367 2.09208 19.2367 1.80977 19.1682 C 1.76082 19.154 1.71517 19.1303 1.67544 19.0984 C 1.63571 19.0665 1.6027 19.027 1.5783 18.9823 C 1.5292 18.8315 1.64844 18.6316 1.53972 18.5194 C 1.49413 18.4703 1.39243 18.4773 1.30124 18.4387 C 1.15801 18.3722 1.04613 18.2528 0.989113 18.1055 C 0.841816 17.7338 0.929493 17.1481 0.915464 16.7027 C 0.915464 16.5694 0.890915 16.4256 0.887408 16.2783 C 0.887408 16.0083 0.813759 15.7418 0.785702 15.4752 C 0.763972 15.3569 0.735874 15.2398 0.701533 15.1245 C 0.659448 14.9316 0.627884 14.7247 0.571771 14.5318 C 0.504699 14.3375 0.504699 14.1264 0.571771 13.9321 C 0.589306 13.8795 0.645419 13.8339 0.673476 13.7638 C 0.712754 13.6609 0.730654 13.5511 0.726082 13.4411 C 0.698026 13.3885 0.568264 13.4411 0.533193 13.378 C 0.456037 12.7958 0.36836 12.2066 0.322768 11.5964 C 0.30874 11.3719 0.30874 11.1615 0.287697 10.9511 C 0.24912 10.5338 0.287697 10.1094 0.242105 9.70608 C 0.242105 9.50618 0.175471 9.32381 0.150921 9.13092 C 0.0237819 8.54613 -0.014056 7.94545 0.038695 7.34932 C 0.0975597 7.01664 0.237262 6.70352 0.445516 6.43748 C 0.589025 6.25082 0.7461 6.07499 0.915464 5.91142 C 1.08555 5.74775 1.26722 5.59655 1.45906 5.45901 C 1.58352 5.35963 1.71743 5.2727 1.85887 5.19948 C 2.2156 5.03487 2.5996 4.93738 2.99165 4.9119 C 3.43545 4.88316 3.88104 4.90197 4.32084 4.96802 C 4.72415 5.04167 5.12746 5.11181 5.52376 5.18896 C 5.92006 5.26612 6.29181 5.37133 6.65655 5.46602 C 6.70565 5.46602 6.74773 5.50811 6.79683 5.52214 C 6.91257 5.5537 7.04584 5.56071 7.1756 5.59578 C 7.57135 5.69357 7.97791 5.74071 8.38554 5.73607 C 8.80072 5.74906 9.21604 5.71494 9.62354 5.63436 C 9.67655 5.61598 9.72812 5.59371 9.77785 5.56773 C 9.83747 5.54669 9.90761 5.56773 9.96372 5.53266 C 10.0198 5.49759 10.0409 5.47654 10.083 5.45901 C 10.2903 5.35956 10.4887 5.24221 10.6757 5.1083 C 10.8225 4.99645 10.9827 4.90337 11.1526 4.83124 C 11.2438 4.79617 11.335 4.75058 11.4227 4.72252 C 11.6115 4.6723 11.7939 4.60052 11.9663 4.50859 C 12.1764 4.35681 12.3745 4.18915 12.559 4.00708 C 12.7554 3.83172 12.9588 3.65637 13.1657 3.49855 C 13.59 3.14784 14.0214 2.85325 14.4212 2.5306 C 14.6281 2.35654 14.8485 2.19939 15.0805 2.06065 C 15.7728 1.54924 16.6371 1.32782 17.4899 1.4434 C 17.5673 1.46657 17.6476 1.47839 17.7284 1.47847 C 17.802 1.47847 17.8582 1.35222 17.9037 1.26805 C 18.0052 1.10546 18.0943 0.935474 18.1703 0.759524 C 18.2369 0.626255 18.2018 0.5 18.3351 0.5 C 18.4684 0.5 18.4509 0.850708 18.4579 0.990991 C 18.4469 1.1533 18.4469 1.31616 18.4579 1.47847 C 18.4745 1.5291 18.505 1.57403 18.5459 1.60814 C 18.5868 1.64224 18.6365 1.66415 18.6893 1.67136 C 18.763 1.67136 18.8121 1.61174 18.8822 1.56966 C 18.9459 1.53902 19.008 1.50507 19.0681 1.46795 C 19.1919 1.36569 19.3091 1.25558 19.4188 1.13829 C 19.51 1.0436 19.6538 0.822651 19.8081 0.843694 C 20.0676 0.87175 19.8081 1.26104 19.752 1.38729 C 19.6152 1.6889 19.4819 1.91335 19.3276 2.20093 C 19.261 2.31667 19.1137 2.47449 19.1137 2.59723 C 19.1137 2.71998 19.1873 2.73752 19.2259 2.8287 C 19.2645 2.91988 19.254 2.91638 19.2715 2.95495 C 19.3616 3.20096 19.4388 3.45147 19.503 3.70547 C 19.5626 3.90888 19.6117 4.12983 19.6853 4.33324 C 19.759 4.53665 19.8642 4.71902 19.9449 4.9119 C 19.9659 4.96451 19.9694 5.02764 19.9905 5.08024 C 20.1588 5.51161 20.3236 6.00261 20.527 6.41644 C 20.6379 6.60847 20.7038 6.82308 20.7199 7.04421 C 20.6995 7.27111 20.606 7.48525 20.4534 7.65444 C 20.3868 7.76316 20.2921 7.92448 20.1939 7.95956 C 20.118 7.96655 20.0417 7.96655 19.9659 7.95956 C 19.8607 7.95956 19.787 8.04022 19.6959 8.05074 C 19.5799 8.05658 19.4651 8.02587 19.3676 7.96295 C 19.27 7.90002 19.1947 7.80806 19.1523 7.70003 C 19.1371 7.62724 19.1277 7.55336 19.1242 7.47909 C 19.0673 7.22266 18.919 6.99574 18.7069 6.8408 C 18.5879 6.72014 18.452 6.61736 18.3036 6.53568 C 18.0651 6.41293 17.802 6.33929 17.553 6.20251 C 17.4689 6.14711 17.3697 6.11895 17.269 6.12185 C 17.1357 6.1464 17.0024 6.36384 16.9183 6.50061 C 16.2659 7.35985 15.6873 8.25415 15.0525 9.08533 C 14.6009 9.63504 14.1962 10.2216 13.8426 10.8389 C 13.761 11.011 13.693 11.1892 13.6391 11.3719 C 13.5725 11.5578 13.5409 11.7612 13.4708 11.9541 C 13.2253 12.6555 13.1517 13.5113 12.9272 14.2442 C 12.9027 14.3214 12.8956 14.4091 12.8711 14.4932 C 12.7694 14.8685 12.6677 15.2964 12.5484 15.6927 C 12.4633 16.05 12.4198 16.416 12.4187 16.7834 C 12.3726 17.1581 12.4072 17.5384 12.5204 17.8986 C 12.5905 18.0214 12.843 18.067 12.9377 18.1967 C 13.0324 18.3265 13.0464 18.4562 13.1131 18.5755 C 13.1797 18.6947 13.2884 18.828 13.2779 18.9542 C 13.2699 18.9971 13.2513 19.0372 13.2237 19.0709 C 13.1961 19.1046 13.1605 19.1308 13.1201 19.1471 C 13.0429 19.1857 12.9272 19.1471 12.8536 19.2032 C 12.7799 19.2594 12.8009 19.3716 12.7133 19.4382 Z"
  />
</svg>
